# xmcd
#
# Track frame offsets:
#	150
#	13597
#	25410
#	39207
#	53580
#	67362
#	84860
#	98377
#	112677
#	123182
#
# Disc length: 1902 seconds
#
# Revision: 0
# Processed by: cddbd v1.5.1PL0 Copyright (c) Steve Scherf et al.
# Submitted via: audiograbber 1.83.01
#
DISCID=69076c0a
DTITLE=Various Artist - Road to Nashville 2
DYEAR=1900
DGENRE=
TTITLE0=Mickey Gilley - The Girls All Get Prettier At Closing Time
TTITLE1=Henson Cargill - Skip A Rope
TTITLE2=Tanya Tucker - What's Your Momma's Name
TTITLE3=Roy Orbison - Distant Drums
TTITLE4=Sonny James - Is It Wrong (For Loving You)
TTITLE5=Collin Raye - Love, Me
TTITLE6=Waylon Jennings - Wrong
TTITLE7=Rosanne Cash - Tennesssee Flat Top Box
TTITLE8=Willie Nelson - Blue Eyes Crying In The Rain
TTITLE9=Marty Robbins - El Paso
EXTD=
EXTT0=
EXTT1=
EXTT2=
EXTT3=
EXTT4=
EXTT5=
EXTT6=
EXTT7=
EXTT8=
EXTT9=
PLAYORDER=
